<?xml version="1.0" encoding="UTF-8"?>
<svg xmlns="http://www.w3.org/2000/svg" xmlns:xlink="http://www.w3.org/1999/xlink" width="504pt" height="504pt" viewBox="0 0 504 504" version="1.1">
<g id="surface8">
<rect x="0" y="0" width="504" height="504" style="fill:rgb(100%,100%,100%);fill-opacity:1;stroke:none;"/>
<path style="fill:none;stroke-width:0.75;stroke-linecap:round;stroke-linejoin:round;stroke:rgb(0%,0%,0%);stroke-opacity:1;stroke-miterlimit:10;" d="M 86.464844 159.363281 L 88.015625 160.621094 L 89.582031 161.8125 L 91.167969 162.929688 L 92.769531 163.980469 L 94.382812 164.964844 L 96.011719 165.875 L 97.652344 166.71875 L 99.308594 167.492188 L 100.96875 168.195312 L 102.644531 168.832031 L 104.328125 169.402344 L 106.015625 169.898438 L 107.714844 170.332031 L 109.421875 170.695312 L 111.132812 170.988281 L 112.847656 171.21875 L 114.570312 171.378906 L 116.300781 171.476562 L 118.03125 171.507812 L 119.769531 171.472656 L 121.511719 171.371094 L 123.257812 171.203125 L 125.007812 170.976562 L 126.765625 170.683594 L 128.527344 170.328125 L 130.292969 169.910156 L 132.066406 169.433594 L 133.84375 168.894531 L 135.632812 168.292969 L 137.425781 167.636719 L 139.230469 166.921875 L 141.042969 166.144531 L 142.867188 165.316406 L 144.703125 164.429688 L 146.550781 163.488281 L 148.414062 162.496094 L 150.292969 161.449219 L 152.1875 160.355469 L 154.101562 159.207031 L 156.039062 158.011719 L 157.996094 156.769531 L 159.976562 155.484375 L 161.980469 154.152344 L 164.011719 152.777344 L 166.074219 151.363281 L 168.167969 149.914062 L 170.292969 148.421875 L 172.453125 146.898438 L 174.652344 145.339844 L 176.886719 143.75 L 179.164062 142.132812 L 181.484375 140.488281 L 183.847656 138.820312 L 186.257812 137.128906 L 188.714844 135.417969 L 191.222656 133.691406 L 193.78125 131.949219 L 196.394531 130.195312 L 199.0625 128.433594 L 201.789062 126.664062 L 204.570312 124.890625 L 207.410156 123.117188 L 210.3125 121.34375 L 213.277344 119.578125 L 216.304688 117.816406 L 219.394531 116.066406 L 222.550781 114.332031 L 225.769531 112.613281 L 229.054688 110.917969 L 232.410156 109.242188 L 235.828125 107.589844 L 239.316406 105.96875 L 242.871094 104.378906 L 246.492188 102.824219 L 250.179688 101.308594 L 253.9375 99.832031 L 257.757812 98.398438 L 261.648438 97.011719 L 265.601562 95.675781 L 269.625 94.390625 L 273.707031 93.160156 L 277.855469 91.988281 L 282.066406 90.875 L 286.339844 89.828125 L 290.671875 88.84375 L 295.0625 87.929688 L 299.511719 87.085938 L 304.015625 86.316406 L 308.574219 85.621094 L 313.183594 85.003906 L 317.847656 84.46875 L 322.558594 84.015625 L 327.320312 83.648438 L 332.121094 83.363281 L 336.96875 83.171875 L 341.859375 83.070312 L 346.785156 83.0625 L 351.746094 83.148438 L 356.746094 83.328125 L 361.773438 83.609375 "/>
<path style="fill:none;stroke-width:0.75;stroke-linecap:round;stroke-linejoin:round;stroke:rgb(0%,0%,0%);stroke-opacity:1;stroke-miterlimit:10;" d="M 88.023438 202.886719 L 90 204.046875 L 91.984375 205.132812 L 93.972656 206.144531 L 95.960938 207.078125 L 97.953125 207.9375 L 99.945312 208.722656 L 101.933594 209.433594 L 103.921875 210.070312 L 105.902344 210.632812 L 107.878906 211.125 L 109.847656 211.542969 L 111.808594 211.886719 L 113.761719 212.15625 L 115.703125 212.359375 L 117.636719 212.484375 L 119.558594 212.542969 L 121.464844 212.53125 L 123.359375 212.449219 L 125.242188 212.296875 L 127.109375 212.074219 L 128.964844 211.78125 L 130.804688 211.425781 L 132.632812 211 L 134.445312 210.503906 L 136.242188 209.945312 L 138.023438 209.320312 L 139.796875 208.632812 L 141.554688 207.875 L 143.296875 207.058594 L 145.03125 206.175781 L 146.757812 205.230469 L 148.472656 204.226562 L 150.179688 203.160156 L 151.878906 202.03125 L 153.574219 200.847656 L 155.265625 199.601562 L 156.953125 198.300781 L 158.644531 196.945312 L 160.335938 195.53125 L 162.03125 194.0625 L 163.734375 192.542969 L 165.445312 190.972656 L 167.171875 189.351562 L 168.910156 187.683594 L 170.664062 185.96875 L 172.4375 184.207031 L 174.234375 182.402344 L 176.058594 180.558594 L 177.910156 178.671875 L 179.792969 176.75 L 181.707031 174.792969 L 183.664062 172.804688 L 185.65625 170.785156 L 187.691406 168.738281 L 189.773438 166.667969 L 191.90625 164.574219 L 194.085938 162.460938 L 196.320312 160.332031 L 198.613281 158.1875 L 200.960938 156.035156 L 203.371094 153.875 L 205.84375 151.710938 L 208.378906 149.542969 L 210.984375 147.382812 L 213.652344 145.226562 L 216.394531 143.078125 L 219.203125 140.941406 L 222.085938 138.824219 L 225.042969 136.722656 L 228.070312 134.644531 L 231.175781 132.59375 L 234.351562 130.574219 L 237.605469 128.585938 L 240.933594 126.632812 L 244.335938 124.71875 L 247.8125 122.847656 L 251.367188 121.019531 L 254.996094 119.242188 L 258.695312 117.519531 L 262.46875 115.847656 L 266.316406 114.234375 L 270.234375 112.683594 L 274.222656 111.195312 L 278.28125 109.773438 L 282.40625 108.421875 L 286.597656 107.140625 L 290.851562 105.9375 L 295.171875 104.808594 L 299.550781 103.757812 L 303.992188 102.792969 L 308.488281 101.910156 L 313.042969 101.113281 L 317.648438 100.402344 L 322.304688 99.785156 L 327.011719 99.261719 L 331.765625 98.832031 L 336.566406 98.5 L 341.40625 98.265625 L 346.285156 98.132812 L 351.199219 98.101562 "/>
<path style="fill:none;stroke-width:0.75;stroke-linecap:round;stroke-linejoin:round;stroke:rgb(0%,0%,0%);stroke-opacity:1;stroke-miterlimit:10;" d="M 98.5 241.914062 L 100.945312 242.910156 L 103.382812 243.824219 L 105.816406 244.660156 L 108.238281 245.417969 L 110.648438 246.097656 L 113.042969 246.695312 L 115.421875 247.21875 L 117.785156 247.664062 L 120.128906 248.03125 L 122.453125 248.320312 L 124.753906 248.535156 L 127.03125 248.675781 L 129.285156 248.742188 L 131.511719 248.734375 L 133.707031 248.652344 L 135.878906 248.5 L 138.015625 248.277344 L 140.125 247.980469 L 142.199219 247.613281 L 144.242188 247.175781 L 146.25 246.671875 L 148.222656 246.097656 L 150.164062 245.457031 L 152.066406 244.75 L 153.9375 243.976562 L 155.769531 243.136719 L 157.566406 242.230469 L 159.332031 241.261719 L 161.058594 240.226562 L 162.753906 239.128906 L 164.414062 237.96875 L 166.042969 236.75 L 167.640625 235.464844 L 169.207031 234.121094 L 170.75 232.714844 L 172.261719 231.253906 L 173.75 229.730469 L 175.21875 228.148438 L 176.667969 226.511719 L 178.101562 224.816406 L 179.519531 223.066406 L 180.929688 221.261719 L 182.332031 219.402344 L 183.730469 217.488281 L 185.132812 215.527344 L 186.535156 213.515625 L 187.953125 211.457031 L 189.378906 209.347656 L 190.824219 207.199219 L 192.292969 205.007812 L 193.789062 202.773438 L 195.316406 200.503906 L 196.875 198.199219 L 198.476562 195.863281 L 200.121094 193.496094 L 201.816406 191.105469 L 203.5625 188.691406 L 205.363281 186.261719 L 207.222656 183.8125 L 209.144531 181.351562 L 211.132812 178.882812 L 213.191406 176.410156 L 215.320312 173.933594 L 217.523438 171.464844 L 219.800781 169 L 222.15625 166.546875 L 224.589844 164.105469 L 227.105469 161.683594 L 229.699219 159.285156 L 232.378906 156.910156 L 235.140625 154.566406 L 237.984375 152.253906 L 240.914062 149.980469 L 243.929688 147.746094 L 247.023438 145.554688 L 250.203125 143.410156 L 253.46875 141.316406 L 256.8125 139.273438 L 260.238281 137.289062 L 263.746094 135.367188 L 267.332031 133.503906 L 270.996094 131.707031 L 274.738281 129.980469 L 278.554688 128.324219 L 282.441406 126.738281 L 286.402344 125.234375 L 290.4375 123.804688 L 294.535156 122.460938 L 298.703125 121.195312 L 302.933594 120.019531 L 307.222656 118.933594 L 311.578125 117.933594 L 315.988281 117.03125 L 320.453125 116.21875 L 324.96875 115.503906 L 329.535156 114.890625 L 334.152344 114.375 L 338.8125 113.960938 L 343.515625 113.648438 L 348.257812 113.441406 "/>
<path style="fill:none;stroke-width:0.75;stroke-linecap:round;stroke-linejoin:round;stroke:rgb(0%,0%,0%);stroke-opacity:1;stroke-miterlimit:10;" d="M 115.078125 275.25 L 118.011719 276.011719 L 120.933594 276.691406 L 123.832031 277.285156 L 126.714844 277.792969 L 129.570312 278.21875 L 132.402344 278.5625 L 135.207031 278.828125 L 137.984375 279.007812 L 140.726562 279.113281 L 143.4375 279.136719 L 146.113281 279.082031 L 148.75 278.953125 L 151.347656 278.746094 L 153.90625 278.464844 L 156.421875 278.113281 L 158.890625 277.6875 L 161.3125 277.1875 L 163.6875 276.621094 L 166.015625 275.984375 L 168.292969 275.277344 L 170.515625 274.503906 L 172.6875 273.667969 L 174.804688 272.761719 L 176.863281 271.796875 L 178.871094 270.765625 L 180.816406 269.671875 L 182.707031 268.519531 L 184.539062 267.308594 L 186.316406 266.035156 L 188.03125 264.707031 L 189.6875 263.316406 L 191.289062 261.871094 L 192.828125 260.371094 L 194.3125 258.816406 L 195.742188 257.203125 L 197.121094 255.535156 L 198.441406 253.816406 L 199.714844 252.039062 L 200.941406 250.210938 L 202.121094 248.324219 L 203.261719 246.390625 L 204.363281 244.398438 L 205.433594 242.355469 L 206.476562 240.257812 L 207.5 238.109375 L 208.503906 235.910156 L 209.5 233.660156 L 210.488281 231.363281 L 211.484375 229.015625 L 212.492188 226.621094 L 213.515625 224.1875 L 214.566406 221.710938 L 215.652344 219.195312 L 216.773438 216.648438 L 217.941406 214.066406 L 219.164062 211.460938 L 220.445312 208.832031 L 221.785156 206.183594 L 223.199219 203.519531 L 224.683594 200.847656 L 226.246094 198.171875 L 227.890625 195.496094 L 229.613281 192.824219 L 231.425781 190.160156 L 233.324219 187.507812 L 235.3125 184.875 L 237.390625 182.261719 L 239.5625 179.675781 L 241.824219 177.117188 L 244.179688 174.59375 L 246.628906 172.105469 L 249.167969 169.660156 L 251.800781 167.257812 L 254.523438 164.902344 L 257.335938 162.601562 L 260.238281 160.351562 L 263.234375 158.15625 L 266.3125 156.023438 L 269.480469 153.953125 L 272.730469 151.949219 L 276.0625 150.015625 L 279.480469 148.148438 L 282.976562 146.359375 L 286.550781 144.640625 L 290.199219 143.003906 L 293.921875 141.449219 L 297.71875 139.976562 L 301.582031 138.589844 L 305.515625 137.289062 L 309.515625 136.074219 L 313.574219 134.953125 L 317.695312 133.925781 L 321.875 132.996094 L 326.109375 132.160156 L 330.398438 131.421875 L 334.738281 130.785156 L 339.121094 130.246094 L 343.550781 129.8125 L 348.023438 129.484375 L 352.535156 129.261719 "/>
<path style="fill:none;stroke-width:0.75;stroke-linecap:round;stroke-linejoin:round;stroke:rgb(0%,0%,0%);stroke-opacity:1;stroke-miterlimit:10;" d="M 134.527344 302.679688 L 137.941406 303.152344 L 141.335938 303.535156 L 144.703125 303.824219 L 148.039062 304.027344 L 151.34375 304.140625 L 154.613281 304.164062 L 157.851562 304.105469 L 161.046875 303.960938 L 164.199219 303.734375 L 167.3125 303.421875 L 170.378906 303.03125 L 173.398438 302.558594 L 176.367188 302.007812 L 179.28125 301.382812 L 182.144531 300.679688 L 184.949219 299.902344 L 187.699219 299.054688 L 190.386719 298.136719 L 193.011719 297.148438 L 195.574219 296.089844 L 198.070312 294.96875 L 200.5 293.78125 L 202.863281 292.53125 L 205.152344 291.222656 L 207.371094 289.851562 L 209.515625 288.421875 L 211.585938 286.941406 L 213.582031 285.402344 L 215.5 283.8125 L 217.339844 282.171875 L 219.097656 280.480469 L 220.777344 278.742188 L 222.378906 276.957031 L 223.894531 275.128906 L 225.328125 273.253906 L 226.683594 271.339844 L 227.953125 269.382812 L 229.140625 267.386719 L 230.25 265.347656 L 231.277344 263.273438 L 232.222656 261.15625 L 233.097656 259 L 233.898438 256.800781 L 234.632812 254.5625 L 235.304688 252.28125 L 235.921875 249.957031 L 236.492188 247.582031 L 237.03125 245.164062 L 237.550781 242.695312 L 238.066406 240.179688 L 238.589844 237.621094 L 239.136719 235.015625 L 239.722656 232.375 L 240.359375 229.703125 L 241.058594 227.003906 L 241.832031 224.285156 L 242.6875 221.550781 L 243.625 218.8125 L 244.65625 216.070312 L 245.78125 213.335938 L 247 210.609375 L 248.320312 207.898438 L 249.738281 205.203125 L 251.257812 202.535156 L 252.875 199.894531 L 254.597656 197.28125 L 256.414062 194.707031 L 258.332031 192.167969 L 260.351562 189.671875 L 262.464844 187.21875 L 264.675781 184.8125 L 266.980469 182.453125 L 269.382812 180.148438 L 271.878906 177.898438 L 274.460938 175.707031 L 277.136719 173.578125 L 279.902344 171.507812 L 282.753906 169.503906 L 285.6875 167.566406 L 288.707031 165.699219 L 291.808594 163.902344 L 294.988281 162.179688 L 298.246094 160.535156 L 301.578125 158.96875 L 304.984375 157.480469 L 308.460938 156.074219 L 312.007812 154.75 L 315.621094 153.511719 L 319.296875 152.363281 L 323.035156 151.304688 L 326.835938 150.332031 L 330.691406 149.457031 L 334.601562 148.671875 L 338.5625 147.984375 L 342.574219 147.390625 L 346.632812 146.898438 L 350.734375 146.503906 L 354.878906 146.210938 L 359.0625 146.019531 L 363.277344 145.933594 "/>
<path style="fill:none;stroke-width:0.75;stroke-linecap:round;stroke-linejoin:round;stroke:rgb(0%,0%,0%);stroke-opacity:1;stroke-miterlimit:10;" d="M 153.601562 324.988281 L 157.453125 325.152344 L 161.277344 325.222656 L 165.066406 325.191406 L 168.816406 325.070312 L 172.53125 324.851562 L 176.207031 324.539062 L 179.835938 324.136719 L 183.417969 323.640625 L 186.953125 323.058594 L 190.4375 322.386719 L 193.871094 321.628906 L 197.246094 320.785156 L 200.5625 319.859375 L 203.820312 318.851562 L 207.015625 317.765625 L 210.144531 316.597656 L 213.207031 315.355469 L 216.203125 314.039062 L 219.128906 312.648438 L 221.980469 311.1875 L 224.753906 309.65625 L 227.457031 308.058594 L 230.078125 306.394531 L 232.621094 304.667969 L 235.082031 302.878906 L 237.460938 301.03125 L 239.753906 299.125 L 241.960938 297.167969 L 244.078125 295.15625 L 246.109375 293.09375 L 248.046875 290.980469 L 249.894531 288.824219 L 251.652344 286.621094 L 253.3125 284.378906 L 254.878906 282.097656 L 256.347656 279.777344 L 257.71875 277.425781 L 258.992188 275.039062 L 260.167969 272.625 L 261.242188 270.183594 L 262.21875 267.714844 L 263.09375 265.226562 L 263.867188 262.71875 L 264.539062 260.191406 L 265.105469 257.648438 L 265.570312 255.09375 L 265.933594 252.527344 L 266.191406 249.957031 L 266.347656 247.378906 L 266.398438 244.800781 L 266.453125 242.21875 L 266.605469 239.644531 L 266.867188 237.070312 L 267.230469 234.507812 L 267.695312 231.953125 L 268.261719 229.410156 L 268.933594 226.882812 L 269.707031 224.375 L 270.582031 221.882812 L 271.554688 219.417969 L 272.632812 216.972656 L 273.808594 214.558594 L 275.082031 212.175781 L 276.453125 209.820312 L 277.921875 207.503906 L 279.488281 205.21875 L 281.148438 202.976562 L 282.902344 200.777344 L 284.75 198.617188 L 286.691406 196.507812 L 288.722656 194.445312 L 290.839844 192.433594 L 293.046875 190.472656 L 295.339844 188.570312 L 297.71875 186.722656 L 300.179688 184.933594 L 302.722656 183.207031 L 305.34375 181.542969 L 308.042969 179.945312 L 310.820312 178.414062 L 313.671875 176.953125 L 316.597656 175.5625 L 319.59375 174.242188 L 322.65625 173 L 325.785156 171.835938 L 328.980469 170.746094 L 332.238281 169.738281 L 335.554688 168.8125 L 338.929688 167.972656 L 342.359375 167.214844 L 345.84375 166.542969 L 349.378906 165.957031 L 352.964844 165.464844 L 356.59375 165.0625 L 360.269531 164.75 L 363.980469 164.53125 L 367.734375 164.40625 L 371.523438 164.378906 L 375.347656 164.445312 L 379.199219 164.613281 "/>
<path style="fill:none;stroke-width:0.75;stroke-linecap:round;stroke-linejoin:round;stroke:rgb(0%,0%,0%);stroke-opacity:1;stroke-miterlimit:10;" d="M 169.519531 343.667969 L 173.738281 343.578125 L 177.921875 343.386719 L 182.066406 343.09375 L 186.167969 342.703125 L 190.226562 342.207031 L 194.238281 341.617188 L 198.199219 340.929688 L 202.109375 340.144531 L 205.964844 339.265625 L 209.765625 338.296875 L 213.503906 337.238281 L 217.179688 336.085938 L 220.792969 334.851562 L 224.339844 333.527344 L 227.816406 332.121094 L 231.222656 330.632812 L 234.554688 329.066406 L 237.8125 327.417969 L 240.992188 325.695312 L 244.09375 323.902344 L 247.113281 322.035156 L 250.046875 320.097656 L 252.898438 318.09375 L 255.660156 316.023438 L 258.335938 313.890625 L 260.921875 311.699219 L 263.417969 309.449219 L 265.816406 307.144531 L 268.125 304.789062 L 270.335938 302.382812 L 272.449219 299.929688 L 274.46875 297.429688 L 276.386719 294.894531 L 278.203125 292.316406 L 279.921875 289.707031 L 281.542969 287.066406 L 283.0625 284.394531 L 284.480469 281.703125 L 285.796875 278.992188 L 287.019531 276.265625 L 288.144531 273.53125 L 289.175781 270.789062 L 290.113281 268.050781 L 290.96875 265.316406 L 291.742188 262.597656 L 292.441406 259.898438 L 293.078125 257.222656 L 293.664062 254.582031 L 294.210938 251.980469 L 294.734375 249.417969 L 295.25 246.902344 L 295.765625 244.4375 L 296.308594 242.015625 L 296.878906 239.644531 L 297.496094 237.316406 L 298.167969 235.035156 L 298.902344 232.796875 L 299.703125 230.601562 L 300.574219 228.445312 L 301.523438 226.328125 L 302.550781 224.25 L 303.660156 222.214844 L 304.847656 220.21875 L 306.117188 218.261719 L 307.46875 216.34375 L 308.90625 214.472656 L 310.421875 212.644531 L 312.023438 210.859375 L 313.703125 209.121094 L 315.460938 207.429688 L 317.300781 205.789062 L 319.21875 204.199219 L 321.210938 202.660156 L 323.285156 201.175781 L 325.429688 199.75 L 327.648438 198.378906 L 329.9375 197.066406 L 332.300781 195.820312 L 334.730469 194.632812 L 337.226562 193.507812 L 339.789062 192.453125 L 342.414062 191.464844 L 345.101562 190.542969 L 347.851562 189.695312 L 350.65625 188.917969 L 353.519531 188.21875 L 356.433594 187.589844 L 359.402344 187.042969 L 362.421875 186.570312 L 365.488281 186.179688 L 368.597656 185.867188 L 371.753906 185.640625 L 374.949219 185.496094 L 378.183594 185.433594 L 381.457031 185.460938 L 384.761719 185.574219 L 388.097656 185.773438 L 391.464844 186.066406 L 394.855469 186.445312 L 398.273438 186.917969 "/>
<path style="fill:none;stroke-width:0.75;stroke-linecap:round;stroke-linejoin:round;stroke:rgb(0%,0%,0%);stroke-opacity:1;stroke-miterlimit:10;" d="M 180.265625 360.339844 L 184.777344 360.117188 L 189.246094 359.785156 L 193.679688 359.351562 L 198.0625 358.816406 L 202.402344 358.179688 L 206.6875 357.441406 L 210.921875 356.605469 L 215.101562 355.671875 L 219.222656 354.644531 L 223.285156 353.523438 L 227.285156 352.3125 L 231.214844 351.011719 L 235.082031 349.625 L 238.878906 348.152344 L 242.601562 346.59375 L 246.25 344.957031 L 249.824219 343.242188 L 253.320312 341.449219 L 256.734375 339.585938 L 260.070312 337.648438 L 263.320312 335.644531 L 266.488281 333.574219 L 269.566406 331.441406 L 272.558594 329.25 L 275.464844 327 L 278.277344 324.695312 L 281 322.339844 L 283.632812 319.9375 L 286.171875 317.492188 L 288.621094 315.007812 L 290.976562 312.480469 L 293.238281 309.925781 L 295.40625 307.335938 L 297.488281 304.726562 L 299.476562 302.089844 L 301.375 299.441406 L 303.183594 296.777344 L 304.910156 294.105469 L 306.554688 291.425781 L 308.117188 288.75 L 309.601562 286.078125 L 311.011719 283.417969 L 312.355469 280.769531 L 313.636719 278.140625 L 314.859375 275.535156 L 316.027344 272.953125 L 317.148438 270.40625 L 318.230469 267.890625 L 319.28125 265.414062 L 320.308594 262.976562 L 321.3125 260.585938 L 322.308594 258.238281 L 323.300781 255.9375 L 324.296875 253.6875 L 325.300781 251.488281 L 326.320312 249.339844 L 327.363281 247.246094 L 328.433594 245.203125 L 329.539062 243.210938 L 330.679688 241.273438 L 331.859375 239.390625 L 333.085938 237.5625 L 334.359375 235.785156 L 335.679688 234.0625 L 337.054688 232.398438 L 338.484375 230.785156 L 339.972656 229.226562 L 341.511719 227.726562 L 343.113281 226.28125 L 344.769531 224.894531 L 346.484375 223.5625 L 348.257812 222.292969 L 350.09375 221.078125 L 351.984375 219.925781 L 353.929688 218.835938 L 355.9375 217.804688 L 357.996094 216.835938 L 360.113281 215.933594 L 362.285156 215.09375 L 364.507812 214.324219 L 366.785156 213.617188 L 369.109375 212.980469 L 371.488281 212.410156 L 373.910156 211.914062 L 376.378906 211.488281 L 378.894531 211.132812 L 381.453125 210.851562 L 384.050781 210.648438 L 386.6875 210.515625 L 389.363281 210.464844 L 392.074219 210.488281 L 394.816406 210.589844 L 397.59375 210.773438 L 400.398438 211.035156 L 403.230469 211.378906 L 406.085938 211.808594 L 408.964844 212.316406 L 411.867188 212.910156 L 414.785156 213.585938 L 417.722656 214.347656 "/>
<path style="fill:none;stroke-width:0.75;stroke-linecap:round;stroke-linejoin:round;stroke:rgb(0%,0%,0%);stroke-opacity:1;stroke-miterlimit:10;" d="M 184.542969 376.15625 L 189.285156 375.949219 L 193.988281 375.640625 L 198.648438 375.226562 L 203.265625 374.710938 L 207.832031 374.09375 L 212.347656 373.378906 L 216.8125 372.570312 L 221.222656 371.664062 L 225.574219 370.667969 L 229.867188 369.578125 L 234.097656 368.402344 L 238.265625 367.140625 L 242.363281 365.792969 L 246.394531 364.367188 L 250.359375 362.859375 L 254.246094 361.277344 L 258.0625 359.621094 L 261.804688 357.894531 L 265.46875 356.097656 L 269.054688 354.234375 L 272.5625 352.308594 L 275.988281 350.324219 L 279.332031 348.285156 L 282.59375 346.191406 L 285.773438 344.046875 L 288.871094 341.855469 L 291.882812 339.621094 L 294.8125 337.34375 L 297.660156 335.035156 L 300.421875 332.6875 L 303.101562 330.316406 L 305.695312 327.914062 L 308.210938 325.492188 L 310.644531 323.054688 L 313 320.601562 L 315.277344 318.136719 L 317.480469 315.664062 L 319.609375 313.191406 L 321.667969 310.714844 L 323.65625 308.25 L 325.578125 305.789062 L 327.4375 303.339844 L 329.238281 300.90625 L 330.984375 298.492188 L 332.679688 296.101562 L 334.324219 293.738281 L 335.925781 291.402344 L 337.484375 289.097656 L 339.011719 286.828125 L 340.507812 284.59375 L 341.972656 282.402344 L 343.421875 280.25 L 344.847656 278.144531 L 346.261719 276.085938 L 347.667969 274.074219 L 349.070312 272.109375 L 350.46875 270.199219 L 351.871094 268.339844 L 353.28125 266.535156 L 354.699219 264.785156 L 356.132812 263.089844 L 357.582031 261.449219 L 359.046875 259.871094 L 360.539062 258.347656 L 362.050781 256.882812 L 363.589844 255.480469 L 365.160156 254.136719 L 366.757812 252.851562 L 368.386719 251.628906 L 370.046875 250.46875 L 371.742188 249.375 L 373.46875 248.339844 L 375.230469 247.371094 L 377.03125 246.464844 L 378.863281 245.625 L 380.734375 244.851562 L 382.636719 244.140625 L 384.578125 243.5 L 386.550781 242.925781 L 388.558594 242.421875 L 390.601562 241.988281 L 392.675781 241.621094 L 394.785156 241.324219 L 396.921875 241.097656 L 399.089844 240.945312 L 401.289062 240.863281 L 403.515625 240.859375 L 405.769531 240.921875 L 408.046875 241.0625 L 410.347656 241.28125 L 412.667969 241.570312 L 415.015625 241.9375 L 417.375 242.382812 L 419.757812 242.902344 L 422.152344 243.503906 L 424.5625 244.179688 L 426.984375 244.9375 L 429.414062 245.773438 L 431.855469 246.691406 L 434.300781 247.6875 "/>
<path style="fill:none;stroke-width:0.75;stroke-linecap:round;stroke-linejoin:round;stroke:rgb(0%,0%,0%);stroke-opacity:1;stroke-miterlimit:10;" d="M 181.601562 391.496094 L 186.515625 391.464844 L 191.394531 391.332031 L 196.234375 391.097656 L 201.03125 390.765625 L 205.785156 390.335938 L 210.492188 389.8125 L 215.152344 389.195312 L 219.757812 388.488281 L 224.3125 387.691406 L 228.808594 386.808594 L 233.25 385.839844 L 237.628906 384.792969 L 241.949219 383.664062 L 246.203125 382.457031 L 250.394531 381.175781 L 254.519531 379.824219 L 258.578125 378.402344 L 262.566406 376.914062 L 266.484375 375.363281 L 270.328125 373.75 L 274.105469 372.082031 L 277.804688 370.355469 L 281.433594 368.578125 L 284.984375 366.753906 L 288.464844 364.882812 L 291.867188 362.96875 L 295.195312 361.015625 L 298.449219 359.027344 L 301.625 357.003906 L 304.726562 354.953125 L 307.757812 352.875 L 310.710938 350.777344 L 313.59375 348.65625 L 316.40625 346.523438 L 319.144531 344.375 L 321.816406 342.21875 L 324.417969 340.054688 L 326.957031 337.890625 L 329.429688 335.726562 L 331.839844 333.566406 L 334.1875 331.414062 L 336.476562 329.269531 L 338.714844 327.140625 L 340.894531 325.027344 L 343.023438 322.933594 L 345.109375 320.859375 L 347.144531 318.8125 L 349.136719 316.792969 L 351.089844 314.804688 L 353.007812 312.847656 L 354.890625 310.925781 L 356.742188 309.042969 L 358.5625 307.195312 L 360.363281 305.390625 L 362.136719 303.632812 L 363.890625 301.914062 L 365.628906 300.246094 L 367.355469 298.625 L 369.066406 297.054688 L 370.769531 295.535156 L 372.464844 294.070312 L 374.15625 292.65625 L 375.847656 291.296875 L 377.535156 289.996094 L 379.226562 288.753906 L 380.921875 287.566406 L 382.621094 286.441406 L 384.328125 285.375 L 386.042969 284.367188 L 387.765625 283.421875 L 389.5 282.542969 L 391.246094 281.722656 L 393.003906 280.96875 L 394.773438 280.277344 L 396.558594 279.652344 L 398.355469 279.09375 L 400.167969 278.601562 L 401.996094 278.175781 L 403.835938 277.816406 L 405.6875 277.527344 L 407.558594 277.304688 L 409.4375 277.152344 L 411.335938 277.070312 L 413.242188 277.054688 L 415.164062 277.113281 L 417.09375 277.242188 L 419.039062 277.441406 L 420.992188 277.714844 L 422.953125 278.058594 L 424.921875 278.476562 L 426.898438 278.964844 L 428.878906 279.527344 L 430.867188 280.164062 L 432.855469 280.875 L 434.847656 281.660156 L 436.835938 282.523438 L 438.828125 283.457031 L 440.816406 284.464844 L 442.800781 285.550781 L 444.777344 286.710938 "/>
<path style="fill:none;stroke-width:0.75;stroke-linecap:round;stroke-linejoin:round;stroke:rgb(0%,0%,0%);stroke-opacity:1;stroke-miterlimit:10;" d="M 171.027344 405.992188 L 176.054688 406.269531 L 181.050781 406.453125 L 186.015625 406.539062 L 190.941406 406.53125 L 195.828125 406.429688 L 200.675781 406.234375 L 205.480469 405.953125 L 210.238281 405.585938 L 214.953125 405.132812 L 219.613281 404.59375 L 224.226562 403.980469 L 228.785156 403.285156 L 233.289062 402.515625 L 237.738281 401.671875 L 242.128906 400.757812 L 246.460938 399.773438 L 250.734375 398.726562 L 254.945312 397.613281 L 259.09375 396.441406 L 263.175781 395.210938 L 267.195312 393.925781 L 271.152344 392.589844 L 275.042969 391.203125 L 278.863281 389.769531 L 282.621094 388.292969 L 286.308594 386.773438 L 289.929688 385.21875 L 293.484375 383.628906 L 296.972656 382.007812 L 300.390625 380.359375 L 303.742188 378.683594 L 307.03125 376.984375 L 310.25 375.265625 L 313.40625 373.53125 L 316.496094 371.78125 L 319.523438 370.023438 L 322.484375 368.257812 L 325.386719 366.484375 L 328.230469 364.710938 L 331.011719 362.9375 L 333.734375 361.167969 L 336.402344 359.40625 L 339.015625 357.652344 L 341.578125 355.910156 L 344.085938 354.179688 L 346.542969 352.472656 L 348.953125 350.78125 L 351.316406 349.113281 L 353.636719 347.46875 L 355.910156 345.847656 L 358.148438 344.261719 L 360.34375 342.703125 L 362.503906 341.175781 L 364.632812 339.6875 L 366.722656 338.234375 L 368.785156 336.820312 L 370.820312 335.449219 L 372.824219 334.117188 L 374.804688 332.828125 L 376.761719 331.585938 L 378.699219 330.394531 L 380.613281 329.246094 L 382.507812 328.148438 L 384.386719 327.105469 L 386.25 326.109375 L 388.097656 325.171875 L 389.933594 324.285156 L 391.757812 323.453125 L 393.570312 322.679688 L 395.375 321.964844 L 397.167969 321.304688 L 398.957031 320.707031 L 400.734375 320.167969 L 402.507812 319.6875 L 404.273438 319.269531 L 406.035156 318.917969 L 407.792969 318.625 L 409.542969 318.394531 L 411.289062 318.230469 L 413.03125 318.128906 L 414.769531 318.09375 L 416.5 318.125 L 418.226562 318.21875 L 419.949219 318.382812 L 421.667969 318.609375 L 423.378906 318.90625 L 425.085938 319.269531 L 426.78125 319.699219 L 428.472656 320.199219 L 430.15625 320.765625 L 431.828125 321.402344 L 433.492188 322.109375 L 435.148438 322.882812 L 436.789062 323.722656 L 438.417969 324.636719 L 440.03125 325.617188 L 441.632812 326.667969 L 443.21875 327.789062 L 444.785156 328.980469 L 446.332031 330.238281 "/>
<path style="fill:none;stroke-width:0.75;stroke-linecap:round;stroke-linejoin:round;stroke:rgb(0%,0%,0%);stroke-opacity:1;stroke-miterlimit:10;" d="M 86.464844 159.363281 L 86.152344 163.867188 L 85.949219 168.34375 L 85.855469 172.789062 L 85.863281 177.203125 L 85.976562 181.582031 L 86.191406 185.921875 L 86.507812 190.226562 L 86.917969 194.488281 L 87.425781 198.710938 L 88.023438 202.886719 L 88.710938 207.019531 L 89.488281 211.101562 L 90.347656 215.140625 L 91.289062 219.125 L 92.308594 223.058594 L 93.40625 226.9375 L 94.578125 230.765625 L 95.816406 234.539062 L 97.125 238.253906 L 98.5 241.914062 L 99.933594 245.515625 L 101.425781 249.058594 L 102.972656 252.542969 L 104.574219 255.964844 L 106.222656 259.332031 L 107.914062 262.636719 L 109.652344 265.878906 L 111.425781 269.0625 L 113.234375 272.1875 L 115.078125 275.25 L 116.949219 278.253906 L 118.84375 281.199219 L 120.761719 284.082031 L 122.699219 286.910156 L 124.652344 289.675781 L 126.617188 292.390625 L 128.589844 295.042969 L 130.566406 297.644531 L 132.546875 300.1875 L 134.527344 302.679688 L 136.5 305.121094 L 138.46875 307.511719 L 140.425781 309.851562 L 142.371094 312.144531 L 144.300781 314.390625 L 146.210938 316.59375 L 148.097656 318.753906 L 149.960938 320.871094 L 151.796875 322.949219 L 153.601562 324.988281 L 155.375 326.992188 L 157.113281 328.960938 L 158.816406 330.894531 L 160.480469 332.800781 L 162.101562 334.675781 L 163.679688 336.519531 L 165.210938 338.34375 L 166.699219 340.140625 L 168.136719 341.914062 L 169.519531 343.667969 L 170.855469 345.398438 L 172.132812 347.113281 L 173.359375 348.8125 L 174.527344 350.496094 L 175.636719 352.164062 L 176.683594 353.820312 L 177.671875 355.464844 L 178.601562 357.101562 L 179.464844 358.722656 L 180.265625 360.339844 L 181 361.945312 L 181.667969 363.546875 L 182.269531 365.140625 L 182.804688 366.730469 L 183.269531 368.3125 L 183.664062 369.890625 L 183.992188 371.464844 L 184.246094 373.03125 L 184.433594 374.597656 L 184.542969 376.15625 L 184.582031 377.714844 L 184.550781 379.265625 L 184.445312 380.8125 L 184.261719 382.355469 L 184.007812 383.894531 L 183.675781 385.425781 L 183.273438 386.953125 L 182.789062 388.476562 L 182.234375 389.992188 L 181.601562 391.496094 L 180.890625 392.996094 L 180.101562 394.488281 L 179.238281 395.96875 L 178.296875 397.4375 L 177.28125 398.898438 L 176.183594 400.34375 L 175.011719 401.78125 L 173.761719 403.199219 L 172.433594 404.601562 L 171.027344 405.992188 "/>
<path style="fill:none;stroke-width:0.75;stroke-linecap:round;stroke-linejoin:round;stroke:rgb(0%,0%,0%);stroke-opacity:1;stroke-miterlimit:10;" d="M 102.644531 168.832031 L 102.679688 173.238281 L 102.828125 177.609375 L 103.089844 181.945312 L 103.460938 186.242188 L 103.941406 190.5 L 104.523438 194.71875 L 105.214844 198.890625 L 106.003906 203.015625 L 106.894531 207.09375 L 107.878906 211.125 L 108.957031 215.101562 L 110.128906 219.027344 L 111.390625 222.894531 L 112.734375 226.707031 L 114.164062 230.460938 L 115.675781 234.15625 L 117.261719 237.792969 L 118.921875 241.363281 L 120.652344 244.875 L 122.453125 248.320312 L 124.316406 251.703125 L 126.242188 255.015625 L 128.226562 258.265625 L 130.265625 261.449219 L 132.355469 264.566406 L 134.492188 267.613281 L 136.671875 270.59375 L 138.890625 273.507812 L 141.148438 276.355469 L 143.4375 279.136719 L 145.757812 281.847656 L 148.101562 284.496094 L 150.464844 287.078125 L 152.847656 289.597656 L 155.246094 292.050781 L 157.652344 294.445312 L 160.066406 296.777344 L 162.484375 299.046875 L 164.902344 301.261719 L 167.3125 303.421875 L 169.714844 305.527344 L 172.109375 307.578125 L 174.484375 309.582031 L 176.84375 311.535156 L 179.183594 313.445312 L 181.496094 315.308594 L 183.78125 317.132812 L 186.035156 318.917969 L 188.253906 320.667969 L 190.4375 322.386719 L 192.585938 324.074219 L 194.6875 325.730469 L 196.746094 327.363281 L 198.761719 328.972656 L 200.726562 330.5625 L 202.644531 332.136719 L 204.503906 333.695312 L 206.316406 335.238281 L 208.066406 336.773438 L 209.765625 338.296875 L 211.402344 339.816406 L 212.980469 341.332031 L 214.496094 342.847656 L 215.949219 344.359375 L 217.335938 345.875 L 218.660156 347.394531 L 219.917969 348.914062 L 221.109375 350.445312 L 222.230469 351.980469 L 223.285156 353.523438 L 224.269531 355.078125 L 225.183594 356.640625 L 226.027344 358.214844 L 226.796875 359.800781 L 227.492188 361.402344 L 228.117188 363.011719 L 228.667969 364.632812 L 229.144531 366.269531 L 229.542969 367.917969 L 229.867188 369.578125 L 230.117188 371.253906 L 230.285156 372.941406 L 230.378906 374.636719 L 230.394531 376.347656 L 230.328125 378.066406 L 230.183594 379.796875 L 229.960938 381.539062 L 229.660156 383.289062 L 229.273438 385.042969 L 228.808594 386.808594 L 228.261719 388.578125 L 227.632812 390.355469 L 226.921875 392.132812 L 226.128906 393.914062 L 225.25 395.699219 L 224.292969 397.484375 L 223.25 399.265625 L 222.121094 401.046875 L 220.910156 402.824219 L 219.613281 404.59375 "/>
<path style="fill:none;stroke-width:0.75;stroke-linecap:round;stroke-linejoin:round;stroke:rgb(0%,0%,0%);stroke-opacity:1;stroke-miterlimit:10;" d="M 119.769531 171.472656 L 120 175.71875 L 120.347656 179.929688 L 120.808594 184.105469 L 121.382812 188.242188 L 122.070312 192.332031 L 122.867188 196.378906 L 123.773438 200.378906 L 124.78125 204.328125 L 125.898438 208.226562 L 127.109375 212.074219 L 128.425781 215.863281 L 129.832031 219.59375 L 131.335938 223.269531 L 132.929688 226.878906 L 134.613281 230.429688 L 136.378906 233.914062 L 138.226562 237.332031 L 140.15625 240.683594 L 142.164062 243.964844 L 144.242188 247.175781 L 146.390625 250.320312 L 148.605469 253.386719 L 150.882812 256.386719 L 153.21875 259.308594 L 155.613281 262.15625 L 158.058594 264.929688 L 160.554688 267.628906 L 163.09375 270.253906 L 165.675781 272.804688 L 168.292969 275.277344 L 170.941406 277.675781 L 173.621094 280.003906 L 176.324219 282.253906 L 179.046875 284.4375 L 181.785156 286.546875 L 184.535156 288.585938 L 187.296875 290.558594 L 190.058594 292.464844 L 192.820312 294.308594 L 195.574219 296.089844 L 198.320312 297.8125 L 201.054688 299.480469 L 203.769531 301.09375 L 206.464844 302.65625 L 209.132812 304.171875 L 211.773438 305.648438 L 214.378906 307.082031 L 216.953125 308.480469 L 219.488281 309.847656 L 221.980469 311.1875 L 224.425781 312.5 L 226.828125 313.796875 L 229.179688 315.078125 L 231.476562 316.34375 L 233.722656 317.601562 L 235.914062 318.859375 L 238.046875 320.113281 L 240.121094 321.367188 L 242.136719 322.628906 L 244.09375 323.902344 L 245.984375 325.183594 L 247.8125 326.484375 L 249.578125 327.796875 L 251.277344 329.132812 L 252.910156 330.488281 L 254.480469 331.867188 L 255.980469 333.273438 L 257.410156 334.703125 L 258.777344 336.164062 L 260.070312 337.648438 L 261.292969 339.167969 L 262.449219 340.714844 L 263.53125 342.296875 L 264.542969 343.90625 L 265.480469 345.550781 L 266.34375 347.222656 L 267.132812 348.929688 L 267.851562 350.667969 L 268.492188 352.433594 L 269.054688 354.234375 L 269.539062 356.0625 L 269.949219 357.921875 L 270.28125 359.8125 L 270.53125 361.726562 L 270.703125 363.667969 L 270.792969 365.636719 L 270.800781 367.632812 L 270.726562 369.648438 L 270.570312 371.691406 L 270.328125 373.75 L 270.003906 375.832031 L 269.59375 377.933594 L 269.097656 380.050781 L 268.515625 382.183594 L 267.847656 384.328125 L 267.089844 386.488281 L 266.246094 388.65625 L 265.3125 390.835938 L 264.289062 393.019531 L 263.175781 395.210938 "/>
<path style="fill:none;stroke-width:0.75;stroke-linecap:round;stroke-linejoin:round;stroke:rgb(0%,0%,0%);stroke-opacity:1;stroke-miterlimit:10;" d="M 137.425781 167.636719 L 137.675781 171.679688 L 138.042969 175.683594 L 138.527344 179.652344 L 139.125 183.582031 L 139.835938 187.46875 L 140.660156 191.308594 L 141.59375 195.101562 L 142.636719 198.847656 L 143.78125 202.539062 L 145.03125 206.175781 L 146.386719 209.757812 L 147.835938 213.28125 L 149.386719 216.742188 L 151.03125 220.144531 L 152.769531 223.480469 L 154.597656 226.75 L 156.511719 229.949219 L 158.511719 233.082031 L 160.59375 236.140625 L 162.753906 239.128906 L 164.992188 242.042969 L 167.300781 244.878906 L 169.683594 247.636719 L 172.128906 250.316406 L 174.640625 252.917969 L 177.214844 255.441406 L 179.84375 257.878906 L 182.523438 260.238281 L 185.253906 262.511719 L 188.03125 264.707031 L 190.847656 266.816406 L 193.703125 268.84375 L 196.589844 270.785156 L 199.507812 272.648438 L 202.445312 274.429688 L 205.40625 276.132812 L 208.378906 277.753906 L 211.363281 279.300781 L 214.351562 280.769531 L 217.339844 282.171875 L 220.320312 283.5 L 223.292969 284.765625 L 226.25 285.96875 L 229.183594 287.117188 L 232.09375 288.210938 L 234.972656 289.257812 L 237.816406 290.261719 L 240.625 291.234375 L 243.390625 292.175781 L 246.109375 293.09375 L 248.78125 293.992188 L 251.398438 294.886719 L 253.964844 295.773438 L 256.476562 296.664062 L 258.933594 297.566406 L 261.332031 298.480469 L 263.671875 299.414062 L 265.953125 300.375 L 268.171875 301.363281 L 270.335938 302.382812 L 272.4375 303.441406 L 274.480469 304.539062 L 276.464844 305.679688 L 278.382812 306.863281 L 280.246094 308.097656 L 282.042969 309.375 L 283.78125 310.707031 L 285.457031 312.089844 L 287.070312 313.519531 L 288.621094 315.007812 L 290.105469 316.542969 L 291.523438 318.132812 L 292.878906 319.773438 L 294.164062 321.46875 L 295.386719 323.214844 L 296.535156 325.007812 L 297.613281 326.855469 L 298.621094 328.75 L 299.558594 330.695312 L 300.421875 332.6875 L 301.207031 334.726562 L 301.921875 336.8125 L 302.554688 338.941406 L 303.109375 341.113281 L 303.585938 343.324219 L 303.980469 345.578125 L 304.292969 347.867188 L 304.523438 350.195312 L 304.667969 352.558594 L 304.726562 354.953125 L 304.703125 357.382812 L 304.585938 359.839844 L 304.382812 362.328125 L 304.089844 364.839844 L 303.707031 367.375 L 303.230469 369.9375 L 302.660156 372.515625 L 302 375.113281 L 301.242188 377.730469 L 300.390625 380.359375 "/>
<path style="fill:none;stroke-width:0.75;stroke-linecap:round;stroke-linejoin:round;stroke:rgb(0%,0%,0%);stroke-opacity:1;stroke-miterlimit:10;" d="M 156.039062 158.011719 L 156.136719 161.792969 L 156.347656 165.539062 L 156.675781 169.25 L 157.113281 172.925781 L 157.664062 176.5625 L 158.324219 180.15625 L 159.09375 183.703125 L 159.96875 187.207031 L 160.949219 190.660156 L 162.03125 194.0625 L 163.214844 197.414062 L 164.5 200.707031 L 165.878906 203.945312 L 167.355469 207.121094 L 168.925781 210.234375 L 170.585938 213.285156 L 172.335938 216.273438 L 174.175781 219.191406 L 176.097656 222.039062 L 178.101562 224.816406 L 180.183594 227.519531 L 182.347656 230.152344 L 184.585938 232.703125 L 186.894531 235.179688 L 189.273438 237.578125 L 191.71875 239.894531 L 194.230469 242.128906 L 196.804688 244.277344 L 199.433594 246.34375 L 202.121094 248.324219 L 204.859375 250.21875 L 207.648438 252.027344 L 210.480469 253.746094 L 213.359375 255.375 L 216.273438 256.914062 L 219.222656 258.363281 L 222.199219 259.726562 L 225.207031 260.996094 L 228.234375 262.179688 L 231.277344 263.273438 L 234.328125 264.277344 L 237.390625 265.203125 L 240.449219 266.042969 L 243.5 266.808594 L 246.535156 267.5 L 249.546875 268.128906 L 252.53125 268.699219 L 255.480469 269.226562 L 258.386719 269.714844 L 261.242188 270.183594 L 264.050781 270.644531 L 266.804688 271.109375 L 269.507812 271.589844 L 272.15625 272.105469 L 274.753906 272.65625 L 277.300781 273.257812 L 279.796875 273.914062 L 282.25 274.632812 L 284.65625 275.414062 L 287.019531 276.265625 L 289.335938 277.1875 L 291.613281 278.175781 L 293.839844 279.242188 L 296.023438 280.378906 L 298.164062 281.59375 L 300.253906 282.878906 L 302.296875 284.238281 L 304.289062 285.667969 L 306.226562 287.175781 L 308.117188 288.75 L 309.949219 290.398438 L 311.722656 292.117188 L 313.441406 293.902344 L 315.097656 295.757812 L 316.691406 297.679688 L 318.21875 299.667969 L 319.683594 301.71875 L 321.078125 303.835938 L 322.402344 306.011719 L 323.65625 308.25 L 324.835938 310.542969 L 325.9375 312.894531 L 326.964844 315.304688 L 327.910156 317.765625 L 328.777344 320.28125 L 329.5625 322.84375 L 330.261719 325.457031 L 330.875 328.113281 L 331.402344 330.820312 L 331.839844 333.566406 L 332.183594 336.351562 L 332.441406 339.179688 L 332.601562 342.042969 L 332.667969 344.941406 L 332.640625 347.871094 L 332.511719 350.832031 L 332.289062 353.820312 L 331.964844 356.835938 L 331.539062 359.875 L 331.011719 362.9375 "/>
<path style="fill:none;stroke-width:0.75;stroke-linecap:round;stroke-linejoin:round;stroke:rgb(0%,0%,0%);stroke-opacity:1;stroke-miterlimit:10;" d="M 176.886719 143.75 L 176.703125 147.203125 L 176.625 150.625 L 176.660156 154.019531 L 176.796875 157.382812 L 177.039062 160.710938 L 177.390625 164 L 177.839844 167.253906 L 178.390625 170.464844 L 179.042969 173.628906 L 179.792969 176.75 L 180.636719 179.824219 L 181.578125 182.847656 L 182.613281 185.820312 L 183.738281 188.738281 L 184.949219 191.601562 L 186.253906 194.40625 L 187.640625 197.148438 L 189.109375 199.832031 L 190.664062 202.453125 L 192.292969 205.007812 L 194.003906 207.492188 L 195.785156 209.914062 L 197.644531 212.261719 L 199.570312 214.539062 L 201.566406 216.746094 L 203.628906 218.875 L 205.757812 220.929688 L 207.941406 222.90625 L 210.191406 224.804688 L 212.492188 226.621094 L 214.847656 228.359375 L 217.257812 230.015625 L 219.714844 231.585938 L 222.21875 233.074219 L 224.765625 234.476562 L 227.351562 235.792969 L 229.980469 237.023438 L 232.644531 238.164062 L 235.339844 239.21875 L 238.066406 240.179688 L 240.820312 241.054688 L 243.597656 241.839844 L 246.398438 242.53125 L 249.21875 243.132812 L 252.058594 243.640625 L 254.910156 244.058594 L 257.773438 244.382812 L 260.644531 244.613281 L 263.519531 244.753906 L 266.398438 244.800781 L 269.28125 244.847656 L 272.15625 244.984375 L 275.027344 245.21875 L 277.890625 245.542969 L 280.742188 245.960938 L 283.578125 246.46875 L 286.398438 247.070312 L 289.203125 247.761719 L 291.980469 248.546875 L 294.734375 249.417969 L 297.460938 250.382812 L 300.15625 251.433594 L 302.820312 252.578125 L 305.445312 253.804688 L 308.035156 255.121094 L 310.582031 256.523438 L 313.085938 258.011719 L 315.542969 259.585938 L 317.949219 261.238281 L 320.308594 262.976562 L 322.609375 264.796875 L 324.855469 266.695312 L 327.042969 268.671875 L 329.171875 270.726562 L 331.230469 272.855469 L 333.226562 275.058594 L 335.15625 277.335938 L 337.011719 279.6875 L 338.796875 282.105469 L 340.507812 284.59375 L 342.136719 287.148438 L 343.691406 289.769531 L 345.160156 292.453125 L 346.546875 295.195312 L 347.847656 298 L 349.0625 300.863281 L 350.1875 303.78125 L 351.222656 306.75 L 352.164062 309.773438 L 353.007812 312.847656 L 353.757812 315.96875 L 354.410156 319.136719 L 354.960938 322.347656 L 355.410156 325.597656 L 355.757812 328.890625 L 356.003906 332.21875 L 356.140625 335.578125 L 356.171875 338.972656 L 356.097656 342.398438 L 355.910156 345.847656 "/>
<path style="fill:none;stroke-width:0.75;stroke-linecap:round;stroke-linejoin:round;stroke:rgb(0%,0%,0%);stroke-opacity:1;stroke-miterlimit:10;" d="M 201.789062 126.664062 L 201.261719 129.722656 L 200.835938 132.761719 L 200.511719 135.777344 L 200.289062 138.769531 L 200.160156 141.730469 L 200.132812 144.660156 L 200.199219 147.558594 L 200.359375 150.421875 L 200.613281 153.246094 L 200.960938 156.035156 L 201.398438 158.78125 L 201.925781 161.484375 L 202.539062 164.144531 L 203.238281 166.757812 L 204.023438 169.320312 L 204.886719 171.835938 L 205.835938 174.296875 L 206.863281 176.703125 L 207.964844 179.054688 L 209.144531 181.351562 L 210.398438 183.589844 L 211.722656 185.765625 L 213.117188 187.878906 L 214.582031 189.933594 L 216.109375 191.921875 L 217.703125 193.84375 L 219.359375 195.695312 L 221.078125 197.484375 L 222.851562 199.203125 L 224.683594 200.847656 L 226.570312 202.425781 L 228.511719 203.929688 L 230.503906 205.363281 L 232.546875 206.722656 L 234.636719 208.007812 L 236.773438 209.21875 L 238.960938 210.359375 L 241.1875 211.421875 L 243.460938 212.414062 L 245.78125 213.335938 L 248.144531 214.183594 L 250.550781 214.964844 L 253 215.683594 L 255.5 216.339844 L 258.046875 216.941406 L 260.644531 217.496094 L 263.292969 218.007812 L 265.992188 218.492188 L 268.75 218.957031 L 271.554688 219.417969 L 274.414062 219.886719 L 277.320312 220.375 L 280.269531 220.898438 L 283.253906 221.472656 L 286.265625 222.097656 L 289.300781 222.792969 L 292.351562 223.554688 L 295.410156 224.398438 L 298.46875 225.320312 L 301.523438 226.328125 L 304.566406 227.421875 L 307.59375 228.605469 L 310.601562 229.875 L 313.578125 231.234375 L 316.527344 232.683594 L 319.441406 234.226562 L 322.316406 235.855469 L 325.152344 237.574219 L 327.941406 239.378906 L 330.679688 241.273438 L 333.363281 243.253906 L 335.996094 245.320312 L 338.570312 247.472656 L 341.078125 249.707031 L 343.527344 252.023438 L 345.90625 254.417969 L 348.214844 256.894531 L 350.453125 259.449219 L 352.613281 262.078125 L 354.699219 264.785156 L 356.703125 267.5625 L 358.625 270.410156 L 360.464844 273.328125 L 362.214844 276.3125 L 363.875 279.363281 L 365.445312 282.480469 L 366.921875 285.65625 L 368.300781 288.894531 L 369.585938 292.1875 L 370.769531 295.535156 L 371.851562 298.9375 L 372.832031 302.394531 L 373.707031 305.894531 L 374.472656 309.445312 L 375.132812 313.039062 L 375.683594 316.675781 L 376.125 320.347656 L 376.453125 324.0625 L 376.664062 327.808594 L 376.761719 331.585938 "/>
<path style="fill:none;stroke-width:0.75;stroke-linecap:round;stroke-linejoin:round;stroke:rgb(0%,0%,0%);stroke-opacity:1;stroke-miterlimit:10;" d="M 232.410156 109.242188 L 231.558594 111.871094 L 230.800781 114.484375 L 230.140625 117.085938 L 229.570312 119.664062 L 229.09375 122.222656 L 228.710938 124.761719 L 228.417969 127.273438 L 228.214844 129.761719 L 228.097656 132.21875 L 228.070312 134.644531 L 228.132812 137.042969 L 228.277344 139.40625 L 228.507812 141.734375 L 228.820312 144.023438 L 229.214844 146.277344 L 229.691406 148.488281 L 230.246094 150.660156 L 230.878906 152.789062 L 231.589844 154.871094 L 232.378906 156.910156 L 233.242188 158.902344 L 234.175781 160.847656 L 235.1875 162.746094 L 236.265625 164.589844 L 237.414062 166.386719 L 238.632812 168.132812 L 239.921875 169.824219 L 241.273438 171.46875 L 242.695312 173.058594 L 244.179688 174.59375 L 245.730469 176.078125 L 247.339844 177.511719 L 249.015625 178.894531 L 250.753906 180.222656 L 252.554688 181.503906 L 254.414062 182.734375 L 256.335938 183.921875 L 258.320312 185.0625 L 260.363281 186.160156 L 262.464844 187.21875 L 264.625 188.238281 L 266.847656 189.226562 L 269.128906 190.183594 L 271.46875 191.121094 L 273.867188 192.035156 L 276.324219 192.933594 L 278.835938 193.824219 L 281.402344 194.714844 L 284.019531 195.605469 L 286.691406 196.507812 L 289.410156 197.425781 L 292.175781 198.367188 L 294.980469 199.335938 L 297.828125 200.34375 L 300.707031 201.390625 L 303.617188 202.484375 L 306.550781 203.628906 L 309.507812 204.835938 L 312.480469 206.097656 L 315.460938 207.429688 L 318.449219 208.828125 L 321.4375 210.300781 L 324.421875 211.847656 L 327.394531 213.46875 L 330.351562 215.171875 L 333.292969 216.953125 L 336.210938 218.8125 L 339.097656 220.757812 L 341.953125 222.785156 L 344.769531 224.894531 L 347.546875 227.085938 L 350.277344 229.363281 L 352.957031 231.71875 L 355.585938 234.160156 L 358.160156 236.679688 L 360.671875 239.28125 L 363.117188 241.960938 L 365.5 244.722656 L 367.808594 247.558594 L 370.046875 250.46875 L 372.207031 253.457031 L 374.289062 256.519531 L 376.289062 259.648438 L 378.203125 262.851562 L 380.03125 266.121094 L 381.769531 269.457031 L 383.414062 272.855469 L 384.960938 276.320312 L 386.414062 279.84375 L 387.765625 283.421875 L 389.019531 287.0625 L 390.164062 290.753906 L 391.207031 294.496094 L 392.140625 298.292969 L 392.960938 302.132812 L 393.675781 306.019531 L 394.273438 309.945312 L 394.757812 313.914062 L 395.125 317.921875 L 395.375 321.964844 "/>
<path style="fill:none;stroke-width:0.75;stroke-linecap:round;stroke-linejoin:round;stroke:rgb(0%,0%,0%);stroke-opacity:1;stroke-miterlimit:10;" d="M 269.625 94.390625 L 268.511719 96.578125 L 267.488281 98.765625 L 266.554688 100.945312 L 265.710938 103.113281 L 264.953125 105.269531 L 264.28125 107.417969 L 263.699219 109.550781 L 263.203125 111.667969 L 262.792969 113.765625 L 262.46875 115.847656 L 262.230469 117.910156 L 262.074219 119.949219 L 262 121.96875 L 262.007812 123.960938 L 262.097656 125.929688 L 262.269531 127.875 L 262.519531 129.789062 L 262.851562 131.675781 L 263.257812 133.535156 L 263.746094 135.367188 L 264.308594 137.164062 L 264.949219 138.933594 L 265.664062 140.671875 L 266.457031 142.375 L 267.320312 144.050781 L 268.257812 145.695312 L 269.269531 147.304688 L 270.351562 148.882812 L 271.503906 150.433594 L 272.730469 151.949219 L 274.023438 153.4375 L 275.386719 154.898438 L 276.820312 156.328125 L 278.320312 157.734375 L 279.886719 159.113281 L 281.523438 160.46875 L 283.222656 161.800781 L 284.988281 163.117188 L 286.816406 164.414062 L 288.707031 165.699219 L 290.660156 166.96875 L 292.675781 168.230469 L 294.753906 169.488281 L 296.886719 170.742188 L 299.078125 171.996094 L 301.324219 173.257812 L 303.621094 174.523438 L 305.972656 175.804688 L 308.375 177.097656 L 310.820312 178.414062 L 313.3125 179.753906 L 315.847656 181.121094 L 318.417969 182.519531 L 321.027344 183.953125 L 323.667969 185.425781 L 326.335938 186.941406 L 329.03125 188.507812 L 331.746094 190.121094 L 334.480469 191.785156 L 337.226562 193.507812 L 339.980469 195.289062 L 342.742188 197.132812 L 345.503906 199.039062 L 348.261719 201.011719 L 351.015625 203.054688 L 353.753906 205.164062 L 356.476562 207.34375 L 359.179688 209.597656 L 361.859375 211.921875 L 364.507812 214.324219 L 367.125 216.796875 L 369.707031 219.347656 L 372.246094 221.96875 L 374.738281 224.667969 L 377.1875 227.441406 L 379.578125 230.292969 L 381.917969 233.214844 L 384.195312 236.210938 L 386.410156 239.28125 L 388.558594 242.421875 L 390.636719 245.636719 L 392.644531 248.917969 L 394.570312 252.269531 L 396.421875 255.6875 L 398.1875 259.171875 L 399.871094 262.71875 L 401.464844 266.332031 L 402.964844 270.003906 L 404.375 273.738281 L 405.6875 277.527344 L 406.902344 281.371094 L 408.015625 285.269531 L 409.027344 289.222656 L 409.933594 293.222656 L 410.730469 297.269531 L 411.417969 301.359375 L 411.992188 305.492188 L 412.453125 309.667969 L 412.800781 313.882812 L 413.03125 318.128906 "/>
<path style="fill:none;stroke-width:0.75;stroke-linecap:round;stroke-linejoin:round;stroke:rgb(0%,0%,0%);stroke-opacity:1;stroke-miterlimit:10;" d="M 313.183594 85.003906 L 311.890625 86.777344 L 310.679688 88.554688 L 309.550781 90.332031 L 308.507812 92.117188 L 307.546875 93.902344 L 306.671875 95.683594 L 305.878906 97.464844 L 305.167969 99.246094 L 304.539062 101.019531 L 303.992188 102.792969 L 303.527344 104.554688 L 303.140625 106.3125 L 302.839844 108.0625 L 302.613281 109.800781 L 302.472656 111.53125 L 302.40625 113.253906 L 302.421875 114.960938 L 302.515625 116.660156 L 302.683594 118.347656 L 302.933594 120.019531 L 303.257812 121.679688 L 303.65625 123.332031 L 304.132812 124.964844 L 304.683594 126.589844 L 305.304688 128.199219 L 306.003906 129.796875 L 306.773438 131.382812 L 307.617188 132.957031 L 308.53125 134.523438 L 309.515625 136.074219 L 310.570312 137.621094 L 311.691406 139.15625 L 312.882812 140.683594 L 314.140625 142.207031 L 315.464844 143.726562 L 316.851562 145.242188 L 318.304688 146.753906 L 319.820312 148.265625 L 321.398438 149.78125 L 323.035156 151.304688 L 324.730469 152.828125 L 326.484375 154.363281 L 328.292969 155.90625 L 330.15625 157.464844 L 332.074219 159.035156 L 334.039062 160.625 L 336.050781 162.234375 L 338.113281 163.867188 L 340.214844 165.527344 L 342.359375 167.214844 L 344.546875 168.929688 L 346.765625 170.679688 L 349.019531 172.46875 L 351.304688 174.292969 L 353.617188 176.15625 L 355.957031 178.066406 L 358.3125 180.019531 L 360.691406 182.019531 L 363.082031 184.074219 L 365.488281 186.179688 L 367.898438 188.335938 L 370.316406 190.550781 L 372.730469 192.824219 L 375.144531 195.15625 L 377.554688 197.546875 L 379.949219 200.003906 L 382.335938 202.519531 L 384.699219 205.101562 L 387.042969 207.75 L 389.363281 210.464844 L 391.652344 213.242188 L 393.910156 216.089844 L 396.128906 219.003906 L 398.308594 221.984375 L 400.445312 225.035156 L 402.535156 228.148438 L 404.574219 231.332031 L 406.554688 234.582031 L 408.480469 237.898438 L 410.347656 241.28125 L 412.144531 244.726562 L 413.878906 248.234375 L 415.539062 251.808594 L 417.125 255.441406 L 418.636719 259.136719 L 420.0625 262.890625 L 421.410156 266.703125 L 422.671875 270.574219 L 423.839844 274.496094 L 424.921875 278.476562 L 425.90625 282.503906 L 426.796875 286.582031 L 427.585938 290.710938 L 428.273438 294.882812 L 428.859375 299.097656 L 429.339844 303.359375 L 429.710938 307.65625 L 429.972656 311.992188 L 430.121094 316.363281 L 430.15625 320.765625 "/>
<path style="fill:none;stroke-width:0.75;stroke-linecap:round;stroke-linejoin:round;stroke:rgb(0%,0%,0%);stroke-opacity:1;stroke-miterlimit:10;" d="M 361.773438 83.609375 L 360.367188 84.996094 L 359.039062 86.402344 L 357.789062 87.820312 L 356.613281 89.253906 L 355.519531 90.703125 L 354.5 92.160156 L 353.558594 93.632812 L 352.695312 95.113281 L 351.910156 96.601562 L 351.199219 98.101562 L 350.566406 99.609375 L 350.007812 101.125 L 349.527344 102.644531 L 349.121094 104.171875 L 348.792969 105.707031 L 348.539062 107.246094 L 348.355469 108.789062 L 348.25 110.335938 L 348.214844 111.886719 L 348.257812 113.441406 L 348.367188 115.003906 L 348.550781 116.566406 L 348.808594 118.136719 L 349.132812 119.710938 L 349.53125 121.289062 L 349.996094 122.871094 L 350.53125 124.457031 L 351.132812 126.050781 L 351.800781 127.652344 L 352.535156 129.261719 L 353.335938 130.875 L 354.199219 132.5 L 355.125 134.132812 L 356.117188 135.777344 L 357.164062 137.433594 L 358.273438 139.105469 L 359.441406 140.785156 L 360.664062 142.484375 L 361.945312 144.199219 L 363.277344 145.933594 L 364.664062 147.6875 L 366.101562 149.460938 L 367.585938 151.257812 L 369.121094 153.078125 L 370.699219 154.925781 L 372.320312 156.800781 L 373.984375 158.707031 L 375.6875 160.640625 L 377.425781 162.609375 L 379.199219 164.613281 L 381.003906 166.652344 L 382.839844 168.730469 L 384.703125 170.847656 L 386.589844 173.003906 L 388.5 175.207031 L 390.429688 177.453125 L 392.371094 179.746094 L 394.332031 182.089844 L 396.296875 184.476562 L 398.273438 186.917969 L 400.253906 189.410156 L 402.234375 191.957031 L 404.210938 194.554688 L 406.183594 197.210938 L 408.148438 199.921875 L 410.101562 202.691406 L 412.039062 205.515625 L 413.957031 208.402344 L 415.851562 211.347656 L 417.722656 214.347656 L 419.5625 217.414062 L 421.375 220.535156 L 423.148438 223.71875 L 424.882812 226.964844 L 426.578125 230.269531 L 428.226562 233.632812 L 429.824219 237.058594 L 431.375 240.542969 L 432.867188 244.085938 L 434.300781 247.6875 L 435.671875 251.347656 L 436.980469 255.0625 L 438.222656 258.835938 L 439.394531 262.660156 L 440.492188 266.542969 L 441.511719 270.476562 L 442.453125 274.460938 L 443.3125 278.496094 L 444.089844 282.582031 L 444.777344 286.710938 L 445.375 290.890625 L 445.882812 295.109375 L 446.292969 299.375 L 446.605469 303.675781 L 446.820312 308.019531 L 446.933594 312.398438 L 446.945312 316.8125 L 446.851562 321.257812 L 446.644531 325.734375 L 446.332031 330.238281 "/>
</g>
</svg>
